<?xml version="1.0" encoding="utf-8"?>
<!-- Uploaded to: SVG Repo, www.svgrepo.com, Generator: SVG Repo Mixer Tools -->
<svg fill="#000000" width="800px" height="800px" viewBox="0 0 32 32" version="1.1" xmlns="http://www.w3.org/2000/svg">
<title>ear-slash</title>
<path d="M20.42 23.91c-0.077-0.030-0.167-0.047-0.26-0.047-0.322 0-0.596 0.203-0.701 0.489l-0.002 0.005-0.092 0.277c-0.090 0.299-0.153 0.648-0.177 1.007l-0.001 0.015c-0.016 0.257-0.056 0.496-0.119 0.726l0.006-0.025c-0.091 0.311-0.195 0.576-0.318 0.829l0.014-0.031c-0.252 0.485-0.574 0.897-0.96 1.24l-0.004 0.004c-0.805 0.687-1.821 1.149-2.938 1.279l-0.026 0.002c-0.25 0.034-0.538 0.054-0.831 0.054-0.894 0-1.745-0.181-2.52-0.509l0.042 0.016c-1.001-0.418-1.802-1.151-2.296-2.073l-0.012-0.024c-0.3-0.609-0.476-1.326-0.476-2.084 0-0.021 0-0.042 0-0.064l-0 0.003c0-0.414-0.336-0.75-0.75-0.75s-0.75 0.336-0.75 0.75v0c-0 0.017-0 0.038-0 0.058 0 1.004 0.234 1.953 0.652 2.795l-0.016-0.037c0.667 1.262 1.727 2.242 3.015 2.79l0.040 0.015c0.889 0.389 1.926 0.615 3.015 0.615 0.011 0 0.022-0 0.032-0h-0.002c0.001 0 0.003 0 0.004 0 0.368 0 0.73-0.024 1.086-0.071l-0.042 0.005c1.457-0.168 2.75-0.763 3.778-1.656l-0.009 0.007c0.528-0.47 0.965-1.029 1.29-1.656l0.015-0.032c0.144-0.288 0.28-0.629 0.386-0.983l0.012-0.047c0.088-0.294 0.15-0.636 0.173-0.988l0.001-0.014c0.017-0.264 0.058-0.51 0.123-0.747l-0.006 0.026 0.070-0.209c0.029-0.076 0.045-0.164 0.045-0.256 0-0.322-0.202-0.597-0.487-0.705l-0.005-0.002zM14.75 21c0.003-0.59 0.183-1.137 0.49-1.592l-0.007 0.010c0.080-0.117 0.127-0.262 0.127-0.418 0-0.414-0.336-0.75-0.75-0.75-0.258 0-0.486 0.131-0.621 0.33l-0.002 0.003c-0.459 0.68-0.733 1.516-0.737 2.417v0.001c0 2.34-2.5 2.34-2.5 0 0-0.414-0.336-0.75-0.75-0.75s-0.75 0.336-0.75 0.75v0c-0.011 0.093-0.017 0.2-0.017 0.309 0 1.552 1.225 2.819 2.761 2.886l0.006 0c1.542-0.067 2.767-1.334 2.767-2.886 0-0.109-0.006-0.216-0.018-0.322l0.001 0.013zM30.531 29.469l-7.91-7.909c0.234-0.302 0.475-0.571 0.732-0.822l0.002-0.002c0.25-0.25 0.5-0.5 0.729-0.777 1.165-1.418 2.019-3.136 2.431-5.019l0.015-0.079c0.145-0.729 0.228-1.567 0.228-2.425 0-0.153-0.003-0.305-0.008-0.457l0.001 0.022c0-6.951-4.492-10.078-8.338-10.645-0.435-0.070-0.936-0.11-1.447-0.11-3.94 0-7.321 2.39-8.774 5.8l-0.024 0.062-5.638-5.637c-0.135-0.131-0.32-0.212-0.523-0.212-0.414 0-0.75 0.336-0.75 0.75 0 0.203 0.081 0.388 0.213 0.523l27.999 28.001c0.136 0.136 0.324 0.22 0.531 0.22 0.415 0 0.751-0.336 0.751-0.751 0-0.207-0.084-0.395-0.22-0.531v0zM18.193 2.839c3.256 0.479 7.057 3.166 7.057 9.161 0.005 0.122 0.007 0.265 0.007 0.409 0 0.756-0.071 1.496-0.206 2.213l0.012-0.074c-0.373 1.716-1.119 3.218-2.151 4.476l0.015-0.018c-0.197 0.238-0.416 0.455-0.631 0.67-0.251 0.252-0.502 0.522-0.742 0.816l-3.009-3.009c0.692-0.858 1.11-1.961 1.11-3.162 0-1.093-0.347-2.105-0.936-2.932l0.011 0.015c-0.863-1.159-2.229-1.901-3.769-1.901-0.862 0-1.67 0.233-2.364 0.639l0.022-0.012c0.433-2.072 2.245-3.606 4.415-3.606 0.057 0 0.114 0.001 0.171 0.003l-0.008-0c2.512 0.207 4.472 2.297 4.472 4.844 0 0.222-0.015 0.441-0.044 0.655l0.003-0.025c0 0.414 0.336 0.75 0.75 0.75s0.75-0.336 0.75-0.75v0c0.020-0.191 0.032-0.414 0.032-0.638 0-3.348-2.592-6.092-5.879-6.333l-0.021-0.001c-0.054-0.002-0.118-0.003-0.183-0.003-2.981 0-5.457 2.158-5.954 4.996l-0.005 0.036-1.805-1.804c1.102-3.228 4.109-5.508 7.648-5.508 0.435 0 0.861 0.034 1.277 0.101l-0.046-0.006zM12.84 11.779c0.521-0.439 1.185-0.722 1.914-0.771l0.010-0.001c0.028-0.001 0.060-0.001 0.093-0.001 1.081 0 2.045 0.505 2.668 1.292l0.005 0.007c0.384 0.556 0.614 1.244 0.614 1.986 0 0.79-0.26 1.519-0.7 2.107l0.007-0.009z"></path>
</svg>